<?xml version="1.0" encoding="utf-8"?>
<!-- Generator: Adobe Illustrator 19.0.0, SVG Export Plug-In . SVG Version: 6.00 Build 0)  -->
<svg version="1.1" xmlns="http://www.w3.org/2000/svg" xmlns:xlink="http://www.w3.org/1999/xlink" x="0px" y="0px"
	 viewBox="0 0 469.7 165.3" style="enable-background:new 0 0 469.7 165.3;" xml:space="preserve">
<style type="text/css">
	.st0{fill:#EE3543;}
	.st1{fill:#82929F;}
	.st2{fill:#F48790;}
	.st3{fill:none;stroke:#EE3543;stroke-width:4;stroke-miterlimit:10;}
	.st4{fill:none;stroke:#F05663;stroke-width:3;stroke-miterlimit:10;}
	.st5{fill:#FFFFFF;}
	.st6{display:none;}
	.st7{display:inline;}
	.st8{fill:#1DA1F2;}
	.st9{font-family:'OpenSans-Bold';}
	.st10{font-size:101.0893px;}
	.st11{font-size:37.0437px;}
	.st12{fill:#40D4FE;}
	.st13{fill:none;stroke:#1B94DE;stroke-width:4;stroke-miterlimit:10;}
	.st14{fill:none;stroke:#40D4FE;stroke-width:3;stroke-miterlimit:10;}
</style>
<g id="Layer_2">
	<g id="XMLID_13_">
		<g id="XMLID_144_">
			<path id="XMLID_145_" class="st0" d="M26.5,132.6H10V60.4h45.5v12.5H26.5v18.6h26.9V104H26.5V132.6z"/>
			<path id="XMLID_147_" class="st0" d="M71,132.6V60.4h16.8v72.2H71z"/>
			<path id="XMLID_149_" class="st0" d="M154.6,112.5c0,6.5-2.6,11.6-7.7,15.4c-5.2,3.8-12.3,5.6-21.5,5.6c-8.5,0-16-1.4-22.5-4.3
				V115c5.4,2.2,9.9,3.7,13.6,4.6c3.7,0.9,7.1,1.3,10.2,1.3c3.7,0,6.5-0.6,8.5-1.9c2-1.3,3-3.2,3-5.7c0-1.4-0.4-2.7-1.3-3.8
				c-0.9-1.1-2.1-2.2-3.8-3.2c-1.7-1-5.1-2.6-10.3-4.9c-4.8-2.1-8.5-4.1-10.9-6c-2.4-1.9-4.4-4.1-5.8-6.7c-1.4-2.5-2.2-5.5-2.2-8.9
				c0-6.4,2.4-11.4,7.1-15.1c4.8-3.7,11.3-5.5,19.7-5.5c4.1,0,8.1,0.4,11.8,1.3s7.7,2.1,11.7,3.8l-5.4,11.9
				c-4.2-1.6-7.7-2.7-10.5-3.3c-2.8-0.6-5.5-0.9-8.2-0.9c-3.2,0-5.6,0.7-7.3,2c-1.7,1.3-2.6,3.1-2.6,5.3c0,1.3,0.3,2.5,1,3.5
				c0.7,1,1.8,2,3.3,2.9c1.5,0.9,5.1,2.6,10.7,5.1c7.4,3.2,12.5,6.5,15.2,9.7C153.2,103.8,154.6,107.8,154.6,112.5z"/>
			<path id="XMLID_151_" class="st0" d="M234,132.6h-16.8v-31.1h-31.4v31.1H169V60.4h16.8v28.3h31.4V60.4H234V132.6z"/>
			<path id="XMLID_153_" class="st0" d="M278.7,90.1l16.6-29.7h18.1l-26.3,44.1v28.1h-16.7V105L244,60.4h18.2L278.7,90.1z"/>
		</g>
		<g id="XMLID_33_">
			<path id="XMLID_34_" class="st1" d="M30,22.8c0,2.8-1,5-2.9,6.5c-1.9,1.5-4.6,2.3-8.1,2.3h-2.6V41h-6V14.5h9.1
				c3.4,0,6.1,0.7,7.8,2.1S30,20,30,22.8z M16.4,27h2c1.8,0,3.2-0.3,4.1-1c0.9-0.7,1.4-1.7,1.4-3c0-1.3-0.4-2.3-1.2-2.9
				s-2-0.9-3.6-0.9h-2.7V27z"/>
			<path id="XMLID_133_" class="st1" d="M41.4,30.8V41h-6V14.5h8.3c3.9,0,6.7,0.7,8.6,2s2.8,3.3,2.8,6c0,1.6-0.5,2.9-1.4,4.2
				c-0.9,1.2-2.2,2.2-3.9,2.8c4.3,5.9,7,9.8,8.3,11.5h-6.7l-6.8-10.1H41.4z M41.4,26.3h1.9c1.9,0,3.3-0.3,4.2-0.9s1.4-1.5,1.4-2.8
				c0-1.3-0.5-2.1-1.4-2.7c-0.9-0.5-2.4-0.8-4.3-0.8h-1.8V26.3z"/>
			<path id="XMLID_136_" class="st1" d="M77.9,41H61.6V14.5h16.3v4.6H67.6v5.8h9.6v4.6h-9.6v6.8h10.3V41z"/>
			<path id="XMLID_138_" class="st1" d="M94.7,41h-6V19.2H81v-4.7h21.4v4.7h-7.7V41z"/>
			<path id="XMLID_140_" class="st1" d="M117.7,41h-6V19.2H104v-4.7h21.4v4.7h-7.7V41z"/>
			<path id="XMLID_142_" class="st1" d="M138.6,25.4l5.9-10.9h6.5l-9.4,16.2V41h-6V30.9l-9.4-16.3h6.5L138.6,25.4z"/>
		</g>
		<g id="XMLID_15_">
			<rect id="XMLID_23_" x="334.6" y="50.4" class="st2" width="28.5" height="71.7"/>
			<rect id="XMLID_22_" x="334.6" y="50.4" class="st3" width="28.5" height="71.7"/>
			<path id="XMLID_21_" class="st3" d="M363.2,114.1c0,1,0.5,2,1.4,2.5c2.6,1.6,8.3,5.6,12.9,11.4c1.6,2.1,3.1,4.2,4.4,6.2
				c3.3,4.9,5,10.8,4.7,16.7c-0.1,2.1,0.1,4,1.1,4.5c2.4,1.2,9,1.2,10.6-11c1.6-12.2-5.7-17.9-5.7-21.6s1.7-5.5,5.9-5.3
				c5.3,0.2,24.7,0.3,29.1,0.1c4.1-0.2,9.1-5.8,2.3-12.6c-1.1-1.1-1.2-2.9-0.2-4.1c2.1-2.5,5.8-3.9,5.9-8c0-6.1-7.3-5.8-10-7.7
				c-0.9-0.6-1-1.9-0.2-2.6c1.5-1.3,3.6-2.4,4.3-5c1.7-6.5-6.5-8.1-10.2-8.2c-2.1,0-3.9-2.2-2-2.4c5.7-0.8,7.1-11.2-1.6-12.2
				c-8.5-1-35,0.4-42,0c-4.8-0.3-8,1.7-9.5,3c-0.7,0.6-1.1,1.4-1.1,2.3V114.1z"/>
			<g id="XMLID_17_">
				<line id="XMLID_20_" class="st4" x1="447" y1="111.5" x2="463.3" y2="111.5"/>
				<line id="XMLID_19_" class="st4" x1="426.3" y1="130.1" x2="426.3" y2="151.2"/>
				<line id="XMLID_18_" class="st4" x1="440.9" y1="124.5" x2="453" y2="136.6"/>
			</g>
			<circle id="XMLID_16_" class="st5" cx="348.9" cy="66.9" r="3.9"/>
		</g>
	</g>
</g>
<g id="Layer_1" class="st6">
	<g id="XMLID_12_" class="st7">
		<text id="XMLID_1_" transform="matrix(1.0995 0 0 1 18.2598 132.5633)" class="st8 st9 st10">REAL </text>
		<text id="XMLID_3_" transform="matrix(1.072 0 0 1 25.1016 40.977)" class="st1 st9 st11">MOSTLY</text>
		<g id="XMLID_11_">
			<rect id="XMLID_4_" x="316.4" y="61.1" class="st12" width="28.5" height="71.7"/>
			<rect id="XMLID_2_" x="316.4" y="61.1" class="st13" width="28.5" height="71.7"/>
			<path id="XMLID_5_" class="st13" d="M344.9,69.2c0-1,0.5-2,1.4-2.5c2.6-1.6,8.3-5.6,12.9-11.4c1.6-2.1,3.1-4.2,4.4-6.2
				c3.3-4.9,5-10.8,4.7-16.7c-0.1-2.1,0.1-4,1.1-4.5c2.4-1.2,9-1.2,10.6,11c1.6,12.2-5.7,17.9-5.7,21.6c0,3.7,1.7,5.5,5.9,5.3
				c5.3-0.2,24.7-0.3,29.1-0.1c4.1,0.2,9.1,5.8,2.3,12.6c-1.1,1.1-1.2,2.9-0.2,4.1c2.1,2.5,5.8,3.9,5.9,8c0,6.1-7.3,5.8-10,7.7
				c-0.9,0.6-1,1.9-0.2,2.6c1.5,1.3,3.6,2.4,4.3,5c1.7,6.5-6.5,8.1-10.2,8.2c-2.1,0-3.9,2.2-2,2.4c5.7,0.8,7.1,11.2-1.6,12.2
				c-8.5,1-35-0.4-42,0c-4.8,0.3-8-1.7-9.5-3c-0.7-0.6-1.1-1.4-1.1-2.3V69.2z"/>
			<g id="XMLID_6_">
				<line id="XMLID_9_" class="st14" x1="428.7" y1="71.7" x2="445.1" y2="71.7"/>
				<line id="XMLID_7_" class="st14" x1="408.1" y1="53.1" x2="408.1" y2="32"/>
				<line id="XMLID_8_" class="st14" x1="422.6" y1="58.7" x2="434.8" y2="46.6"/>
			</g>
			<circle id="XMLID_10_" class="st5" cx="330.6" cy="116.3" r="3.9"/>
		</g>
	</g>
</g>
</svg>
