<?xml version="1.0" encoding="utf-8"?>
<!-- Generator: Adobe Illustrator 19.0.0, SVG Export Plug-In . SVG Version: 6.00 Build 0)  -->
<svg version="1.1" id="Layer_1" xmlns="http://www.w3.org/2000/svg" xmlns:xlink="http://www.w3.org/1999/xlink" x="0px" y="0px"
	 viewBox="0 0 568.9 148.6" style="enable-background:new 0 0 568.9 148.6;" xml:space="preserve">
<style type="text/css">
	.st0{fill:none;stroke:#C8D8E2;stroke-width:2;stroke-linecap:round;stroke-miterlimit:10;}
	.st1{fill:none;stroke:#C8D8E2;stroke-width:2;stroke-linecap:round;stroke-miterlimit:10;stroke-dasharray:10.0889,10.0889;}
	.st2{fill:#55ACEE;}
</style>
<g id="Layer_2">
	<g id="XMLID_1_">
		<g id="XMLID_13_">
			<path id="XMLID_16_" class="st0" d="M0,129c0,0,1.7,0.4,4.9,1.1"/>
			<path id="XMLID_15_" class="st1" d="M14.8,132c37.4,6.9,138.8,20.9,220.7-11.8c38.5-15.4,65.4-48.9,39-65.3
				C255,42.7,217.8,43.5,198,58.6c-33.8,25.8-0.9,78.9,70.6,78.9c71.5,3,195.8-62,229.7-80.6"/>
			<path id="XMLID_14_" class="st0" d="M502.8,54.4c2.8-1.6,4.4-2.4,4.4-2.4"/>
		</g>
	</g>
</g>
<path id="XMLID_35_" class="st2" d="M568.9,6.1c-2.3,1-4.8,1.8-7.6,2c2.8-1.5,4.8-4,5.8-7.1c-2.5,1.5-5.3,2.5-8.3,3
	c-2.3-2.5-5.8-4-9.6-4c-7.1,0-12.9,5.8-12.9,12.9c0,1,0,2,0.3,3c-10.9-0.5-20.5-5.8-26.8-13.7c-1,2-1.8,4-1.8,6.6
	c0,4.6,2.3,8.6,5.8,10.9c-2,0-4-0.8-5.8-1.5c0,0,0,0,0,0.3c0,6.3,4.6,11.6,10.4,12.6c-1,0.3-2.3,0.5-3.5,0.5c-0.8,0-1.8,0-2.5-0.3
	c1.8,5.1,6.6,8.9,12.1,9.1c-4.6,3.5-10.1,5.6-16.2,5.6c-1,0-2,0-3-0.3c5.8,3.8,12.6,5.8,20,5.8c24,0,36.9-19.7,36.9-36.9
	c0-0.5,0-1,0-1.8C564.9,10.9,567.1,8.6,568.9,6.1z"/>
</svg>
