<?xml version="1.0" standalone="no"?>
<!DOCTYPE svg PUBLIC "-//W3C//DTD SVG 20010904//EN"
 "http://www.w3.org/TR/2001/REC-SVG-20010904/DTD/svg10.dtd">
<svg version="1.0" xmlns="http://www.w3.org/2000/svg"
 width="541.000000pt" height="74.000000pt" viewBox="0 0 541.000000 74.000000"
 preserveAspectRatio="xMidYMid meet">
<metadata>
Created by potrace 1.15, written by Peter Selinger 2001-2017
</metadata>
<g transform="translate(0.000000,74.000000) scale(0.100000,-0.100000)"
fill="#000000" stroke="none">
<path d="M235 615 c-78 -28 -135 -115 -135 -205 1 -82 75 -172 155 -188 38 -7
40 -9 43 -47 4 -60 11 -85 24 -85 21 0 228 142 260 178 40 47 58 91 58 147 0
85 -48 160 -125 196 -50 23 -219 26 -280 4z m245 -35 c41 -11 94 -61 109 -103
25 -66 3 -144 -56 -198 -15 -15 -63 -49 -105 -78 l-77 -51 -3 48 c-3 46 -4 47
-43 56 -68 14 -94 27 -125 62 -70 81 -38 208 64 255 46 21 176 26 236 9z"/>
<path d="M3330 598 c-59 -41 -75 -72 -75 -146 0 -56 6 -77 33 -128 59 -109
180 -224 237 -224 32 0 104 50 158 110 103 114 142 248 97 328 -24 43 -83 82
-123 82 -37 0 -78 -18 -108 -46 l-26 -24 -19 21 c-47 52 -120 64 -174 27z
m151 -68 c20 -22 40 -40 44 -40 5 0 24 18 44 39 42 46 79 58 121 41 47 -19 74
-72 67 -130 -11 -90 -91 -208 -186 -274 l-40 -28 -45 26 c-100 58 -191 199
-191 294 0 49 3 56 39 89 33 31 43 35 75 30 25 -4 47 -18 72 -47z"/>
<path d="M4770 590 c-19 -19 -20 -33 -20 -228 0 -164 3 -212 14 -228 13 -18
30 -19 248 -22 226 -3 235 -2 261 18 l27 21 0 210 c0 196 -1 210 -20 229 -19
19 -33 20 -255 20 -222 0 -236 -1 -255 -20z m485 -50 c0 -21 -20 -38 -114
-102 l-115 -78 -26 18 c-177 114 -210 138 -210 158 0 11 3 24 7 28 4 3 108 5
232 4 l226 -3 0 -25z m-349 -150 c58 -38 112 -70 119 -70 7 0 61 32 119 70 59
39 109 70 111 70 3 0 5 -64 5 -143 0 -98 -4 -147 -12 -155 -13 -13 -411 -18
-442 -6 -14 5 -16 28 -16 155 0 82 2 149 5 149 2 0 52 -31 111 -70z"/>
<path d="M1885 580 c-14 -23 11 -30 115 -30 105 0 109 -1 129 -26 19 -24 21
-40 21 -175 0 -82 -4 -149 -8 -149 -5 0 -21 14 -37 30 -29 30 -65 40 -65 18 0
-15 110 -128 125 -128 15 0 125 113 125 128 0 22 -36 12 -66 -19 l-29 -30 -5
166 -5 167 -33 29 c-32 28 -34 29 -147 29 -65 0 -116 -4 -120 -10z"/>
<path d="M1636 521 c-53 -54 -64 -81 -33 -81 6 0 26 14 44 32 l33 32 1 -145
c0 -170 10 -207 59 -232 49 -24 243 -21 248 5 3 14 -11 17 -111 20 -78 2 -119
7 -130 17 -15 11 -17 37 -17 174 l0 161 33 -32 c33 -32 67 -42 67 -20 0 15
-110 128 -125 128 -6 0 -37 -27 -69 -59z"/>
</g>
</svg>
