<?xml version="1.0" encoding="utf-8"?>
<!-- Generator: Adobe Illustrator 19.0.0, SVG Export Plug-In . SVG Version: 6.00 Build 0)  -->
<svg version="1.1" id="Layer_1" xmlns="http://www.w3.org/2000/svg" xmlns:xlink="http://www.w3.org/1999/xlink" x="0px" y="0px"
	 viewBox="0 0 44 46.3" style="enable-background:new 0 0 44 46.3;" xml:space="preserve">
<style type="text/css">
	.st0{fill:#1DA1F2;}
</style>
<g id="XMLID_2_">
	<path id="XMLID_3_" class="st0" d="M44,16.9c0,3.4-0.5,6.4-1.6,9.1c-1.1,2.7-2.5,4.8-4.4,6.4c-1.9,1.5-3.8,2.3-6,2.3
		c-1.8,0-3.3-0.5-4.4-1.5c-1.1-1-1.6-2.4-1.6-4.1h-0.1c-1,1.8-2.3,3.2-3.7,4.2s-3.1,1.4-4.7,1.4c-2.1,0-3.8-0.7-5-2.1
		c-1.2-1.4-1.9-3.3-1.9-5.7c0-2.9,0.6-5.6,1.8-8c1.2-2.4,2.9-4.2,5-5.6c2.2-1.3,4.6-2,7.4-2c2.3,0,4.7,0.5,7.1,1.5l-2.4,8.9
		c-0.7,2.6-1.1,4.7-1.1,6.2c0,1.3,0.3,2.4,1,3.1s1.6,1.1,2.8,1.1c1.6,0,3.1-0.7,4.5-2.1c1.4-1.4,2.5-3.2,3.3-5.6
		c0.8-2.3,1.2-4.7,1.2-7.1c0-2.9-0.6-5.5-1.8-7.8c-1.2-2.3-3-4-5.3-5.3c-2.3-1.3-5-1.9-8.2-1.9c-4.4,0-8.4,1-12,3.1
		c-3.6,2-6.3,4.9-8.3,8.6s-3,7.8-3,12.4c0,5.4,1.5,9.6,4.4,12.7c2.9,3,7,4.5,12.3,4.5c3.9,0,7.8-0.8,11.8-2.3V44
		c-3.9,1.5-8,2.3-12.1,2.3c-3.8,0-7.2-0.8-10.1-2.3c-2.9-1.5-5.1-3.8-6.7-6.7C0.8,34.3,0,30.8,0,26.8c0-5.2,1.1-9.8,3.4-13.9
		c2.3-4.1,5.4-7.3,9.5-9.5C17,1.1,21.4,0,26.3,0c3.6,0,6.7,0.7,9.3,2c2.7,1.4,4.7,3.4,6.2,6C43.3,10.7,44,13.6,44,16.9z M24.9,13.8
		c-2.1,0-4,0.6-5.8,1.7c-1.7,1.1-3.1,2.7-4,4.7c-1,2-1.4,4.2-1.4,6.7c0,1.7,0.4,3.1,1.1,4c0.8,0.9,1.8,1.4,3.2,1.4
		c1.9,0,3.6-0.8,5.1-2.5c1.5-1.7,2.7-4.1,3.5-7.2l2.2-8.1C27.6,14,26.3,13.8,24.9,13.8z"/>
</g>
</svg>
