<?xml version="1.0" encoding="utf-8"?>
<!-- Generator: Adobe Illustrator 19.0.0, SVG Export Plug-In . SVG Version: 6.00 Build 0)  -->
<svg version="1.1" xmlns="http://www.w3.org/2000/svg" xmlns:xlink="http://www.w3.org/1999/xlink" x="0px" y="0px"
	 viewBox="0 0 428.3 145.5" style="enable-background:new 0 0 428.3 145.5;" xml:space="preserve">
<style type="text/css">
	.st0{display:none;}
	.st1{display:inline;}
	.st2{fill:#EE3543;}
	.st3{fill:#82929F;}
	.st4{fill:#F48790;}
	.st5{fill:none;stroke:#EE3543;stroke-width:4;stroke-miterlimit:10;}
	.st6{fill:none;stroke:#F05663;stroke-width:3;stroke-miterlimit:10;}
	.st7{fill:#FFFFFF;}
	.st8{fill:#1DA1F2;}
	.st9{fill:#40D4FE;}
	.st10{fill:#1B94DE;}
</style>
<g id="Layer_2" class="st0">
	<g id="XMLID_13_" class="st1">
		<g id="XMLID_144_">
			<path id="XMLID_145_" class="st2" d="M3.7,132.6h-16.6V60.4h45.5v12.5H3.7v18.6h26.9V104H3.7V132.6z"/>
			<path id="XMLID_147_" class="st2" d="M48.2,132.6V60.4H65v72.2H48.2z"/>
			<path id="XMLID_149_" class="st2" d="M131.8,112.5c0,6.5-2.6,11.6-7.7,15.4c-5.2,3.8-12.3,5.6-21.5,5.6c-8.5,0-16-1.4-22.5-4.3
				V115c5.4,2.2,9.9,3.7,13.6,4.6c3.7,0.9,7.1,1.3,10.2,1.3c3.7,0,6.5-0.6,8.5-1.9c2-1.3,3-3.2,3-5.7c0-1.4-0.4-2.7-1.3-3.8
				c-0.9-1.1-2.1-2.2-3.8-3.2c-1.7-1-5.1-2.6-10.3-4.9c-4.8-2.1-8.5-4.1-10.9-6c-2.4-1.9-4.4-4.1-5.8-6.7c-1.4-2.5-2.2-5.5-2.2-8.9
				c0-6.4,2.4-11.4,7.1-15.1c4.8-3.7,11.3-5.5,19.7-5.5c4.1,0,8.1,0.4,11.8,1.3s7.7,2.1,11.7,3.8L126,76.3
				c-4.2-1.6-7.7-2.7-10.5-3.3c-2.8-0.6-5.5-0.9-8.2-0.9c-3.2,0-5.6,0.7-7.3,2c-1.7,1.3-2.6,3.1-2.6,5.3c0,1.3,0.3,2.5,1,3.5
				c0.7,1,1.8,2,3.3,2.9c1.5,0.9,5.1,2.6,10.7,5.1c7.4,3.2,12.5,6.5,15.2,9.7C130.4,103.8,131.8,107.8,131.8,112.5z"/>
			<path id="XMLID_151_" class="st2" d="M211.2,132.6h-16.8v-31.1H163v31.1h-16.8V60.4H163v28.3h31.4V60.4h16.8V132.6z"/>
			<path id="XMLID_153_" class="st2" d="M255.9,90.1l16.6-29.7h18.1l-26.3,44.1v28.1h-16.7V105l-26.3-44.6h18.2L255.9,90.1z"/>
		</g>
		<g id="XMLID_33_">
			<path id="XMLID_34_" class="st3" d="M7.2,22.8c0,2.8-1,5-2.9,6.5c-1.9,1.5-4.6,2.3-8.1,2.3h-2.6V41h-6V14.5h9.1
				c3.4,0,6.1,0.7,7.8,2.1S7.2,20,7.2,22.8z M-6.4,27h2c1.8,0,3.2-0.3,4.1-1c0.9-0.7,1.4-1.7,1.4-3c0-1.3-0.4-2.3-1.2-2.9
				s-2-0.9-3.6-0.9h-2.7V27z"/>
			<path id="XMLID_133_" class="st3" d="M18.6,30.8V41h-6V14.5h8.3c3.9,0,6.7,0.7,8.6,2s2.8,3.3,2.8,6c0,1.6-0.5,2.9-1.4,4.2
				c-0.9,1.2-2.2,2.2-3.9,2.8c4.3,5.9,7,9.8,8.3,11.5h-6.7l-6.8-10.1H18.6z M18.6,26.3h1.9c1.9,0,3.3-0.3,4.2-0.9s1.4-1.5,1.4-2.8
				c0-1.3-0.5-2.1-1.4-2.7c-0.9-0.5-2.4-0.8-4.3-0.8h-1.8V26.3z"/>
			<path id="XMLID_136_" class="st3" d="M55.1,41H38.8V14.5h16.3v4.6H44.8v5.8h9.6v4.6h-9.6v6.8h10.3V41z"/>
			<path id="XMLID_138_" class="st3" d="M71.9,41h-6V19.2h-7.7v-4.7h21.4v4.7h-7.7V41z"/>
			<path id="XMLID_140_" class="st3" d="M94.9,41h-6V19.2h-7.7v-4.7h21.4v4.7h-7.7V41z"/>
			<path id="XMLID_142_" class="st3" d="M115.8,25.4l5.9-10.9h6.5l-9.4,16.2V41h-6V30.9l-9.4-16.3h6.5L115.8,25.4z"/>
		</g>
		<g id="XMLID_15_">
			<rect id="XMLID_23_" x="311.8" y="50.4" class="st4" width="28.5" height="71.7"/>
			<rect id="XMLID_22_" x="311.8" y="50.4" class="st5" width="28.5" height="71.7"/>
			<path id="XMLID_21_" class="st5" d="M340.4,114.1c0,1,0.5,2,1.4,2.5c2.6,1.6,8.3,5.6,12.9,11.4c1.6,2.1,3.1,4.2,4.4,6.2
				c3.3,4.9,5,10.8,4.7,16.7c-0.1,2.1,0.1,4,1.1,4.5c2.4,1.2,9,1.2,10.6-11c1.6-12.2-5.7-17.9-5.7-21.6s1.7-5.5,5.9-5.3
				c5.3,0.2,24.7,0.3,29.1,0.1c4.1-0.2,9.1-5.8,2.3-12.6c-1.1-1.1-1.2-2.9-0.2-4.1c2.1-2.5,5.8-3.9,5.9-8c0-6.1-7.3-5.8-10-7.7
				c-0.9-0.6-1-1.9-0.2-2.6c1.5-1.3,3.6-2.4,4.3-5c1.7-6.5-6.5-8.1-10.2-8.2c-2.1,0-3.9-2.2-2-2.4c5.7-0.8,7.1-11.2-1.6-12.2
				c-8.5-1-35,0.4-42,0c-4.8-0.3-8,1.7-9.5,3c-0.7,0.6-1.1,1.4-1.1,2.3V114.1z"/>
			<g id="XMLID_17_">
				<line id="XMLID_20_" class="st6" x1="424.2" y1="111.5" x2="440.5" y2="111.5"/>
				<line id="XMLID_19_" class="st6" x1="403.5" y1="130.1" x2="403.5" y2="151.2"/>
				<line id="XMLID_18_" class="st6" x1="418.1" y1="124.5" x2="430.2" y2="136.6"/>
			</g>
			<circle id="XMLID_16_" class="st7" cx="326.1" cy="66.9" r="3.9"/>
		</g>
	</g>
</g>
<g id="Layer_1">
	<g id="XMLID_12_">
		<g id="XMLID_1_">
			<path id="XMLID_176_" class="st8" d="M22.3,104.9v27.7H5.4V60.4h23.1c10.8,0,18.8,1.8,23.9,5.4c5.2,3.6,7.8,9,7.8,16.3
				c0,4.2-1.3,8-3.9,11.3c-2.6,3.3-6.2,5.9-10.9,7.8c11.9,16.2,19.7,26.7,23.3,31.4H50.2l-18.9-27.7H22.3z M22.3,92.4h5.4
				c5.3,0,9.2-0.8,11.8-2.4c2.5-1.6,3.8-4.1,3.8-7.6c0-3.4-1.3-5.9-3.9-7.3c-2.6-1.4-6.6-2.2-12-2.2h-5.1V92.4z"/>
			<path id="XMLID_179_" class="st8" d="M124.5,132.6H78.8V60.4h45.7v12.5H95.6v15.8h26.9v12.5H95.6v18.6h28.9V132.6z"/>
			<path id="XMLID_181_" class="st8" d="M189.6,132.6l-5.8-17.2H155l-5.8,17.2h-18.1l28-72.5h20.6l28.1,72.5H189.6z M179.9,102.6
				c-5.3-15.6-8.3-24.4-9-26.4c-0.7-2-1.1-3.7-1.4-4.8c-1.2,4.2-4.6,14.6-10.3,31.2H179.9z"/>
			<path id="XMLID_184_" class="st8" d="M217.7,132.6V60.4h16.8v59.5h32.2v12.6H217.7z"/>
		</g>
		<g id="XMLID_3_">
			<path id="XMLID_163_" class="st3" d="M17.9,41L11,20.2h-0.2c0.2,4.2,0.4,7,0.4,8.4V41H5.9V14.5H14l6.7,20.2h0.1L28,14.5h8.2V41
				h-5.6V28.5c0-0.6,0-1.3,0-2s0.1-2.8,0.3-6.2h-0.2L23.4,41H17.9z"/>
			<path id="XMLID_165_" class="st3" d="M69,27.7c0,4.4-1.2,7.7-3.5,10.1c-2.3,2.4-5.7,3.5-10,3.5s-7.7-1.2-10-3.5
				c-2.3-2.4-3.5-5.7-3.5-10.1c0-4.4,1.2-7.8,3.5-10.1c2.3-2.3,5.7-3.5,10-3.5s7.7,1.2,10,3.5C67.9,20,69,23.3,69,27.7z M48.3,27.7
				c0,3,0.6,5.2,1.8,6.7s3,2.2,5.4,2.2c4.8,0,7.2-3,7.2-8.9c0-6-2.4-8.9-7.2-8.9c-2.4,0-4.2,0.8-5.4,2.3
				C49,22.5,48.3,24.8,48.3,27.7z"/>
			<path id="XMLID_168_" class="st3" d="M91.6,33.6c0,2.4-0.9,4.3-2.8,5.6c-1.8,1.4-4.4,2.1-7.7,2.1c-3,0-5.7-0.5-8-1.6v-5.2
				c1.9,0.8,3.5,1.4,4.9,1.7c1.3,0.3,2.5,0.5,3.6,0.5c1.3,0,2.3-0.2,3-0.7c0.7-0.5,1.1-1.2,1.1-2.1c0-0.5-0.2-1-0.5-1.4
				c-0.3-0.4-0.8-0.8-1.4-1.2c-0.6-0.4-1.8-1-3.7-1.8c-1.7-0.8-3-1.5-3.9-2.2s-1.6-1.5-2.1-2.4s-0.8-2-0.8-3.3
				c0-2.3,0.8-4.2,2.5-5.5c1.7-1.3,4-2,7-2c1.5,0,2.9,0.2,4.2,0.5c1.3,0.3,2.7,0.8,4.2,1.4l-1.9,4.4c-1.5-0.6-2.8-1-3.8-1.2
				c-1-0.2-2-0.3-2.9-0.3c-1.1,0-2,0.2-2.6,0.7c-0.6,0.5-0.9,1.1-0.9,1.9c0,0.5,0.1,0.9,0.4,1.3c0.2,0.4,0.6,0.7,1.2,1.1
				c0.5,0.3,1.8,1,3.8,1.9c2.6,1.2,4.5,2.4,5.4,3.6C91.2,30.5,91.6,31.9,91.6,33.6z"/>
			<path id="XMLID_170_" class="st3" d="M107.7,41h-6V19.2H94v-4.7h21.4v4.7h-7.7V41z"/>
			<path id="XMLID_172_" class="st3" d="M119.8,41V14.5h6v21.8h11.5V41H119.8z"/>
			<path id="XMLID_174_" class="st3" d="M151,25.4l5.9-10.9h6.5L154,30.7V41h-6V30.9l-9.4-16.3h6.5L151,25.4z"/>
		</g>
		<g id="XMLID_11_">
			<g id="XMLID_4_">
				<rect x="293.6" y="61.1" class="st9" width="28.5" height="71.7"/>
			</g>
			<g id="XMLID_2_">
				<path id="XMLID_160_" class="st10" d="M324.1,134.8h-32.5V59.1h32.5V134.8z M295.6,130.8h24.5V63.1h-24.5V130.8z"/>
			</g>
			<g id="XMLID_5_">
				<path id="XMLID_157_" class="st10" d="M364.5,131c-5,0-10.7-0.1-16-0.2c-6.6-0.1-12.9-0.3-15.6-0.1c-5.5,0.3-9.2-2.1-10.9-3.5
					c-1.1-1-1.8-2.3-1.8-3.8V69.2c0-1.7,0.9-3.3,2.3-4.2c2.2-1.4,7.9-5.3,12.4-11c1.4-1.8,2.9-3.9,4.3-6c3.1-4.6,4.6-10.1,4.4-15.5
					c-0.1-2.2,0-5.3,2.2-6.3c1.6-0.8,4.3-1.2,7,0.2c3.5,1.8,5.7,6,6.5,12.3c1.2,8.9-2,14.6-4.1,18.4c-0.8,1.4-1.6,2.8-1.6,3.5
					c0,1.3,0.2,2.1,0.7,2.6c0.7,0.6,2.1,0.7,3.2,0.7c5.2-0.2,24.8-0.3,29.3-0.1c3,0.2,5.9,2.3,7,5.2c0.8,2,1.3,6-3.4,10.8
					c-0.4,0.4-0.4,1-0.1,1.4c0.5,0.6,1.2,1.2,1.9,1.8c2,1.6,4.4,3.7,4.4,7.5c0,5.8-4.9,7.3-8.2,8.3c-0.8,0.3-1.7,0.5-2.3,0.8
					c0.2,0.2,0.4,0.3,0.6,0.5c1.4,1.1,3.2,2.5,3.9,5.2c0.6,2.4,0.2,4.6-1.1,6.4c-2.4,3.1-7,4-9.4,4.2c1.9,1.5,3.1,3.9,3,6.6
					c0,3.3-2.2,7.4-8,8.1C372.5,130.9,368.8,131,364.5,131z M336.5,126.5c3.2,0,7.4,0.1,12,0.2c9.9,0.2,21,0.5,25.9-0.1
					c4-0.5,4.5-3.1,4.5-4.2c0-1.8-1-3.8-2.9-4.1c-1.8-0.3-2.5-1.6-2.5-2.8c0.1-1.9,2.4-3.6,4.8-3.6c2.2,0,6.3-0.7,7.8-2.7
					c0.4-0.5,0.8-1.3,0.4-2.9c-0.4-1.4-1.3-2.2-2.5-3.1c-0.4-0.3-0.8-0.6-1.2-1c-0.8-0.8-1.3-1.8-1.2-2.9c0.1-1.1,0.7-2.2,1.6-2.8
					c1-0.7,2.4-1.1,3.8-1.5c3.6-1.1,5.4-1.9,5.4-4.5c0-1.9-1.1-2.9-3-4.5c-0.8-0.7-1.7-1.4-2.4-2.3c-1.7-2-1.5-5,0.3-6.8
					c2.3-2.3,3.2-4.7,2.5-6.5c-0.6-1.6-2.3-2.6-3.5-2.6c-4.4-0.2-23.8-0.1-28.9,0.1c-2.7,0.1-4.7-0.5-6.1-1.8
					c-1.3-1.3-1.9-3-1.9-5.5c0-1.7,0.9-3.4,2.1-5.4c2-3.5,4.7-8.4,3.7-15.9c-0.6-4.8-2.2-8.1-4.4-9.3c-1.2-0.7-2.4-0.5-3.1-0.3
					c-0.1,0.3-0.3,1-0.2,2.7c0.3,6.2-1.5,12.5-5,17.9c-1.5,2.3-3,4.4-4.5,6.3c-4.7,5.9-10.4,10-13.4,11.9c-0.3,0.2-0.4,0.5-0.4,0.8
					v54.1c0,0.3,0.1,0.6,0.4,0.7c1.3,1.1,4,2.8,8.1,2.6C333.5,126.6,334.9,126.5,336.5,126.5z"/>
			</g>
			<g id="XMLID_6_">
				<g id="XMLID_9_">
					<rect id="XMLID_156_" x="405.9" y="70.2" class="st9" width="16.4" height="3"/>
				</g>
				<g id="XMLID_7_">
					<rect id="XMLID_155_" x="383.8" y="32" class="st9" width="3" height="21"/>
				</g>
				<g id="XMLID_8_">
					
						<rect id="XMLID_25_" x="404.4" y="44.1" transform="matrix(0.7071 0.7071 -0.7071 0.7071 156.1312 -271.5908)" class="st9" width="3" height="17.2"/>
				</g>
			</g>
			<g id="XMLID_10_">
				<circle class="st7" cx="307.8" cy="116.3" r="3.9"/>
			</g>
		</g>
	</g>
</g>
</svg>
